<svg width="346" height="520" fill="none" xmlns="http://www.w3.org/2000/svg"><path d="M87.035-760.025L1-809.769v-99.487L87.035-959l86.034 49.744v99.487l-86.034 49.744z" fill="#222"/><path d="M258.863-760.025l-86.034-49.744v-99.487L258.863-959l86.035 49.744v99.487l-86.035 49.744zM87.035-461.279L1-511.022v-99.488l86.035-49.743 86.034 49.743v99.488l-86.034 49.743z" fill="#222"/><path d="M258.863-461.279l-86.034-49.743v-99.488l86.034-49.743 86.035 49.743v99.488l-86.035 49.743zM87.035-162.532L1-212.276v-99.487l86.035-49.744 86.034 49.744v99.487l-86.034 49.744z" fill="#222"/><path d="M258.863-162.532l-86.034-49.744v-99.487l86.034-49.744 86.035 49.744v99.487l-86.035 49.744zM87.035 136.214L1 86.471v-99.488L87.035-62.76l86.034 49.743v99.488l-86.034 49.743z" fill="#222"/><path d="M258.863 136.214l-86.034-49.743v-99.488l86.034-49.743 86.035 49.743v99.488l-86.035 49.743zM87.035 434.961L1 385.217V285.73l86.035-49.744 86.034 49.744v99.487l-86.034 49.744z" fill="#222"/><path d="M258.863 434.961l-86.034-49.744V285.73l86.034-49.744 86.035 49.744v99.487l-86.035 49.744zM87.035 733.707L1 683.964v-99.488l86.035-49.743 86.034 49.743v99.488l-86.034 49.743z" fill="#222"/><path d="M258.863 733.707l-86.034-49.743v-99.488l86.034-49.743 86.035 49.743v99.488l-86.035 49.743zM87.035 1032.45L1 982.71v-99.487l86.035-49.744 86.034 49.744v99.487l-86.034 49.74z" fill="#222"/><path d="M258.863 1032.45l-86.034-49.74v-99.487l86.034-49.744 86.035 49.744v99.487l-86.035 49.74zM87.035 1331.2L1 1281.46v-99.49l86.035-49.74 86.034 49.74v99.49l-86.034 49.74z" fill="#222"/><path d="M258.863 1331.2l-86.034-49.74v-99.49l86.034-49.74 86.035 49.74v99.49l-86.035 49.74zM172.564-610.226L86.53-659.969v-99.488l86.034-49.743 86.035 49.743v99.488l-86.035 49.743zm0 298.747L86.53-361.223v-99.487l86.034-49.744 86.035 49.744v99.487l-86.035 49.744zm0 298.747L86.53-62.477v-99.488l86.034-49.743 86.035 49.743v99.488l-86.035 49.743zm0 298.746L86.53 236.27v-99.487l86.034-49.744 86.035 49.744v99.487l-86.035 49.744zm0 298.746L86.53 535.017v-99.488l86.034-49.743 86.035 49.743v99.488l-86.035 49.743zm0 298.747L86.53 833.763v-99.487l86.034-49.744 86.035 49.744v99.487l-86.035 49.744z" fill="#222"/><path d="M172.564 1182.25l-86.034-49.74v-99.49l86.034-49.741 86.035 49.741v99.49l-86.035 49.74zm0 298.75l-86.034-49.74v-99.49l86.034-49.74 86.035 49.74v99.49L172.564 1481z" fill="#222"/><path d="M87.136-859.513L1.102-909.256 87.136-959m0 99.487l86.035-49.743m-86.034 49.743v99.488m85.83-149.231L86.933-959m172.032 99.487l-86.034-49.743L258.965-959m0 99.487L345-909.256m-86.035 49.743v99.488m85.831-149.231L258.762-959m85.896 149.231v-99.487M87.136-560.766L1.103-610.51l86.034-49.743m0 99.487l86.035-49.744m-86.034 49.744v99.487m85.83-149.231l-86.034-49.743m172.032 99.487l-86.034-49.744 86.034-49.743m0 99.487L345-610.51m-86.035 49.744v99.487m85.831-149.231l-86.034-49.743m85.896 149.231v-99.488M87.136-262.02L1.103-311.763l86.034-49.744m0 99.487l86.035-49.743M87.137-262.02v99.488m85.83-149.231l-86.034-49.744m172.032 99.487l-86.034-49.743 86.034-49.744m0 99.487L345-311.763m-86.035 49.743v99.488m85.831-149.231l-86.034-49.744m85.896 149.231v-99.487M87.136 36.727L1.103-13.017 87.136-62.76m0 99.487l86.035-49.744M87.137 36.727v99.487m85.83-149.23L86.933-62.762m172.032 99.488l-86.034-49.744 86.034-49.743m0 99.487L345-13.017m-86.035 49.744v99.487m85.831-149.23l-86.034-49.745m85.896 149.232v-99.488M87.136 335.473L1.103 285.73l86.034-49.744m0 99.487l86.035-49.743m-86.034 49.743v99.488m85.83-149.231l-86.034-49.744m172.032 99.487l-86.034-49.743 86.034-49.744m0 99.487L345 285.73m-86.035 49.743v99.488m85.831-149.231l-86.034-49.744m85.896 149.231V285.73M87.136 634.22L1.103 584.476l86.034-49.743m0 99.487l86.035-49.744M87.137 634.22v99.487m85.83-149.231l-86.034-49.743m172.032 99.487l-86.034-49.744 86.034-49.743m0 99.487L345 584.476m-86.035 49.744v99.487m85.831-149.231l-86.034-49.743m85.896 149.231v-99.488M87.136 932.966L1.103 883.223l86.034-49.744m0 99.487l86.035-49.743m-86.034 49.743v99.484m85.83-149.227l-86.034-49.744m172.032 99.487l-86.034-49.743 86.034-49.744m0 99.487L345 883.223m-86.035 49.743v99.484m85.831-149.227l-86.034-49.744m85.896 149.231v-99.487M87.136 1231.71l-86.034-49.74 86.034-49.74m0 99.48l86.035-49.74m-86.034 49.74v99.49m85.83-149.23l-86.034-49.74m172.032 99.48l-86.034-49.74 86.034-49.74m0 99.48L345 1181.97m-86.035 49.74v99.49m85.831-149.23l-86.034-49.74m85.896 149.23v-99.49M172.666-709.713l-86.034-49.744 86.034-49.743m0 99.487l86.035-49.744m-86.035 49.744v99.487m85.831-149.231L172.463-809.2m85.997 49.743l86.035-49.743m-.102 198.974l-86.034-49.743v-99.488l86.034-49.743M172.666-410.966L86.632-460.71l86.034-49.744m0 99.488l86.035-49.744m-86.035 49.744v99.487m85.831-149.231l-86.034-49.744m85.997 49.744l86.035-49.744m-.102 198.975l-86.034-49.744v-99.487l86.034-49.744M172.666-112.22l-86.034-49.744 86.034-49.743m0 99.487l86.035-49.744m-86.035 49.744v99.487m85.831-149.231l-86.034-49.743m85.997 49.743l86.035-49.743m-.102 198.975l-86.034-49.744v-99.488l86.034-49.743M172.666 186.526l-86.034-49.743 86.034-49.744m0 99.487l86.035-49.743m-86.035 49.743v99.488m85.831-149.231l-86.034-49.744m85.997 49.744l86.035-49.744m-.102 198.975l-86.034-49.744v-99.487l86.034-49.744M172.666 485.273l-86.034-49.744 86.034-49.743m0 99.487l86.035-49.744m-86.035 49.744v99.487m85.831-149.231l-86.034-49.743m85.997 49.743l86.035-49.743m-.102 198.974l-86.034-49.743v-99.488l86.034-49.743M172.666 784.02l-86.034-49.744 86.034-49.744m0 99.488l86.035-49.744m-86.035 49.744v99.487m85.831-149.231l-86.034-49.744m85.997 49.744l86.035-49.744m-.102 198.975l-86.034-49.744v-99.487l86.034-49.744M172.666 1082.77l-86.034-49.75 86.034-49.741m0 99.491l86.035-49.75m-86.035 49.75v99.48m85.831-149.23l-86.034-49.741m85.997 49.741l86.035-49.741m-.102 198.971l-86.034-49.74v-99.49l86.034-49.741M172.666 1381.51l-86.034-49.74 86.034-49.74m0 99.48l86.035-49.74m-86.035 49.74V1481m85.831-149.23l-86.034-49.74m85.997 49.74l86.035-49.74m-86.136 149.23v-99.49l86.034-49.74M87.035-760.025L1-809.769v-99.487L87.035-959l86.034 49.744v99.487l-86.034 49.744zm171.828 0l-86.034-49.744v-99.487L258.863-959l86.035 49.744v99.487l-86.035 49.744zM87.035-461.279L1-511.022v-99.488l86.035-49.743 86.034 49.743v99.488l-86.034 49.743zm171.828 0l-86.034-49.743v-99.488l86.034-49.743 86.035 49.743v99.488l-86.035 49.743zM87.035-162.532L1-212.276v-99.487l86.035-49.744 86.034 49.744v99.487l-86.034 49.744zm171.828 0l-86.034-49.744v-99.487l86.034-49.744 86.035 49.744v99.487l-86.035 49.744zM87.035 136.214L1 86.471v-99.488L87.035-62.76l86.034 49.743v99.488l-86.034 49.743zm171.828 0l-86.034-49.743v-99.488l86.034-49.743 86.035 49.743v99.488l-86.035 49.743zM87.035 434.961L1 385.217V285.73l86.035-49.744 86.034 49.744v99.487l-86.034 49.744zm171.828 0l-86.034-49.744V285.73l86.034-49.744 86.035 49.744v99.487l-86.035 49.744zM87.035 733.707L1 683.964v-99.488l86.035-49.743 86.034 49.743v99.488l-86.034 49.743zm171.828 0l-86.034-49.743v-99.488l86.034-49.743 86.035 49.743v99.488l-86.035 49.743zM87.035 1032.45L1 982.71v-99.487l86.035-49.744 86.034 49.744v99.487l-86.034 49.74zm171.828 0l-86.034-49.74v-99.487l86.034-49.744 86.035 49.744v99.487l-86.035 49.74zM87.035 1331.2L1 1281.46v-99.49l86.035-49.74 86.034 49.74v99.49l-86.034 49.74zm171.828 0l-86.034-49.74v-99.49l86.034-49.74 86.035 49.74v99.49l-86.035 49.74zM172.564-610.226L86.53-659.969v-99.488l86.034-49.743 86.035 49.743v99.488l-86.035 49.743zm0 298.747L86.53-361.223v-99.487l86.034-49.744 86.035 49.744v99.487l-86.035 49.744zm0 298.746L86.53-62.476v-99.488l86.034-49.743 86.035 49.743v99.488l-86.035 49.743zm0 298.747L86.53 236.27v-99.487l86.034-49.744 86.035 49.744v99.487l-86.035 49.744zm0 298.746L86.53 535.017v-99.488l86.034-49.743 86.035 49.743v99.488l-86.035 49.743zm0 298.747L86.53 833.763v-99.487l86.034-49.744 86.035 49.744v99.487l-86.035 49.744zm0 298.743l-86.034-49.74v-99.49l86.034-49.741 86.035 49.741v99.49l-86.035 49.74zm0 298.75l-86.034-49.74v-99.49l86.034-49.74 86.035 49.74v99.49L172.564 1481z" stroke="#BC9B77" stroke-linejoin="round"/></svg>