<svg width="84" height="430" fill="none" xmlns="http://www.w3.org/2000/svg"><path d="M24.025-72.75L1-86.062v-26.625L24.025-126l23.025 13.313v26.625L24.025-72.75z" fill="#222"/><path d="M70.01-72.75L46.985-86.062v-26.625L70.01-126l23.025 13.313v26.625L70.01-72.75zM24.025 7.202L1-6.111v-26.625l23.025-13.313L47.05-32.736v26.625L24.025 7.202z" fill="#222"/><path d="M70.01 7.202L46.985-6.111v-26.625L70.01-46.049l23.025 13.313v26.625L70.01 7.202zM24.025 87.153L1 73.84V47.216l23.025-13.312L47.05 47.215v26.626L24.025 87.153z" fill="#222"/><path d="M70.01 87.153L46.985 73.84V47.216L70.01 33.903l23.025 13.312v26.626L70.01 87.153zm-45.985 79.951L1 153.792v-26.625l23.025-13.313 23.025 13.313v26.625l-23.025 13.312z" fill="#222"/><path d="M70.01 167.104l-23.025-13.312v-26.625l23.025-13.313 23.025 13.313v26.625L70.01 167.104zm-45.985 79.952L1 233.743v-26.625l23.025-13.312 23.025 13.312v26.625l-23.025 13.313z" fill="#222"/><path d="M70.01 247.056l-23.025-13.313v-26.625l23.025-13.312 23.025 13.312v26.625L70.01 247.056zm-45.985 79.951L1 313.695V287.07l23.025-13.313L47.05 287.07v26.625l-23.025 13.312z" fill="#222"/><path d="M70.01 327.007l-23.025-13.312V287.07l23.025-13.313 23.025 13.313v26.625L70.01 327.007zm-45.985 79.952L1 393.646v-26.625l23.025-13.312 23.025 13.312v26.625l-23.025 13.313z" fill="#222"/><path d="M70.01 406.959l-23.025-13.313v-26.625l23.025-13.312 23.025 13.312v26.625L70.01 406.959zM24.025 486.91L1 473.598v-26.626l23.025-13.312 23.025 13.312v26.626L24.025 486.91z" fill="#222"/><path d="M70.01 486.91l-23.025-13.312v-26.626L70.01 433.66l23.025 13.312v26.626L70.01 486.91zM46.915-32.66L23.89-45.973v-26.625L46.915-85.91l23.024 13.312v26.626L46.915-32.66zm0 79.951L23.89 33.98V7.354L46.915-5.96 69.939 7.354v26.625L46.915 47.292zm0 79.952L23.89 113.93V87.305l23.025-13.312 23.024 13.312v26.625l-23.024 13.313zm0 79.951L23.89 193.882v-26.625l23.025-13.313 23.024 13.313v26.625l-23.024 13.312zm0 79.952L23.89 273.833v-26.625l23.025-13.312 23.024 13.312v26.625l-23.024 13.313zm0 79.951L23.89 353.785v-26.626l23.025-13.312 23.024 13.312v26.626l-23.024 13.312z" fill="#222"/><path d="M46.915 447.049L23.89 433.736v-26.625l23.025-13.313 23.024 13.313v26.625l-23.024 13.313zm0 79.951L23.89 513.687v-26.625l23.025-13.312 23.024 13.312v26.625L46.915 527z" fill="#222"/><path d="M24.052-99.375L1.027-112.687 24.052-126m0 26.625l23.025-13.312M24.052-99.375v26.625m22.97-39.937L23.998-126m46.04 26.625l-23.025-13.312L70.037-126m0 26.625l23.025-13.312M70.037-99.375v26.625m22.97-39.937L69.984-126M92.97-86.062v-26.625M24.052-19.424L1.027-32.736l23.025-13.313m0 26.625l23.025-13.312M24.052-19.424V7.203m22.97-39.938L23.998-46.049m46.04 26.625L47.012-32.736l23.024-13.313m0 26.625l23.025-13.312M70.037-19.424V7.203m22.97-39.938L69.984-46.049M92.97-6.11v-26.625M24.052 60.528L1.027 47.215l23.025-13.312m0 26.625l23.025-13.313M24.052 60.528v26.625m22.97-39.938L23.998 33.903m46.04 26.625L47.012 47.215l23.024-13.312m0 26.625l23.025-13.313M70.037 60.528v26.625m22.97-39.938L69.984 33.903M92.97 73.84V47.215M24.052 140.48L1.027 127.167l23.025-13.313m0 26.625l23.025-13.312m-23.025 13.312v26.625m22.97-39.937l-23.024-13.313m46.04 26.625l-23.025-13.312 23.024-13.313m0 26.625l23.025-13.312m-23.025 13.312v26.625m22.97-39.937l-23.024-13.313m22.988 39.938v-26.625m-68.919 93.264L1.027 207.118l23.025-13.312m0 26.625l23.025-13.313m-23.025 13.313v26.625m22.97-39.938l-23.024-13.312m46.04 26.625l-23.025-13.313 23.024-13.312m0 26.625l23.025-13.313m-23.025 13.313v26.625m22.97-39.938l-23.024-13.312m22.988 39.937v-26.625m-68.919 93.264L1.027 287.07l23.025-13.313m0 26.625l23.025-13.312m-23.025 13.312v26.625m22.97-39.937l-23.024-13.313m46.04 26.625L47.012 287.07l23.024-13.313m0 26.625l23.025-13.312m-23.025 13.312v26.625m22.97-39.937l-23.024-13.313m22.988 39.938V287.07m-68.919 93.264L1.027 367.021l23.025-13.312m0 26.625l23.025-13.313m-23.025 13.313v26.625m22.97-39.938l-23.024-13.312m46.04 26.625l-23.025-13.313 23.024-13.312m0 26.625l23.025-13.313m-23.025 13.313v26.625m22.97-39.938l-23.024-13.312m22.988 39.937v-26.625m-68.919 93.264L1.027 446.972l23.025-13.312m0 26.625l23.025-13.313m-23.025 13.313v26.625m22.97-39.938L23.998 433.66m46.04 26.625l-23.025-13.313 23.024-13.312m0 26.625l23.025-13.313m-23.025 13.313v26.625m22.97-39.938L69.984 433.66m22.988 39.938v-26.626M46.94-59.285L23.918-72.598 46.942-85.91m0 26.625l23.025-13.313M46.942-59.285v26.625m22.97-39.938L46.887-85.91m23.015 13.312L92.927-85.91M92.9-32.66L69.875-45.973v-26.625L92.9-85.91M46.942 20.666L23.917 7.354 46.942-5.96m0 26.625L69.967 7.354M46.942 20.666v26.625m22.97-39.937L46.887-5.96M69.902 7.354L92.927-5.96M92.9 47.29L69.875 33.98V7.354L92.9-5.96M46.942 100.618L23.917 87.305l23.025-13.312m0 26.625l23.025-13.313m-23.025 13.313v26.625m22.97-39.938L46.887 73.993m23.015 13.312l23.025-13.312m-.027 53.25L69.875 113.93V87.305L92.9 73.993M46.942 180.569l-23.025-13.312 23.025-13.313m0 26.625l23.025-13.312m-23.025 13.312v26.625m22.97-39.937l-23.025-13.313m23.015 13.313l23.025-13.313m-.027 53.25l-23.025-13.312v-26.625L92.9 153.944M46.942 260.521l-23.025-13.313 23.025-13.313m0 26.626l23.025-13.313m-23.025 13.313v26.625m22.97-39.938l-23.025-13.313m23.015 13.313l23.025-13.313m-.027 53.251l-23.025-13.313v-26.625L92.9 233.895M46.942 340.472l-23.025-13.313 23.025-13.312m0 26.625l23.025-13.313m-23.025 13.313v26.625m22.97-39.938l-23.025-13.312m23.015 13.312l23.025-13.312m-.027 53.25l-23.025-13.312v-26.626L92.9 313.847M46.942 420.423l-23.025-13.312 23.025-13.313m0 26.625l23.025-13.312m-23.025 13.312v26.626m22.97-39.938l-23.025-13.313m23.015 13.313l23.025-13.313m-.027 53.251l-23.025-13.313v-26.625L92.9 393.798M46.942 500.375l-23.025-13.313 23.025-13.312m0 26.625l23.025-13.313m-23.025 13.313V527m22.97-39.938L46.887 473.75m23.015 13.312l23.025-13.312m-23.052 39.937v-26.625L92.9 473.75M24.025-72.75L1-86.062v-26.625L24.025-126l23.025 13.313v26.625L24.025-72.75zm45.985 0L46.985-86.062v-26.625L70.01-126l23.025 13.313v26.625L70.01-72.75zM24.025 7.202L1-6.111v-26.625l23.025-13.313L47.05-32.736v26.625L24.025 7.202zm45.985 0L46.985-6.111v-26.625L70.01-46.049l23.025 13.313v26.625L70.01 7.202zM24.025 87.153L1 73.84V47.216l23.025-13.312L47.05 47.215v26.626L24.025 87.153zm45.985 0L46.985 73.84V47.216L70.01 33.903l23.025 13.312v26.626L70.01 87.153zm-45.985 79.951L1 153.792v-26.625l23.025-13.313 23.025 13.313v26.625l-23.025 13.312zm45.985 0l-23.025-13.312v-26.625l23.025-13.313 23.025 13.313v26.625L70.01 167.104zm-45.985 79.952L1 233.743v-26.625l23.025-13.312 23.025 13.312v26.625l-23.025 13.313zm45.985 0l-23.025-13.313v-26.625l23.025-13.312 23.025 13.312v26.625L70.01 247.056zm-45.985 79.951L1 313.695V287.07l23.025-13.313L47.05 287.07v26.625l-23.025 13.312zm45.985 0l-23.025-13.312V287.07l23.025-13.313 23.025 13.313v26.625L70.01 327.007zm-45.985 79.952L1 393.646v-26.625l23.025-13.312 23.025 13.312v26.625l-23.025 13.313zm45.985 0l-23.025-13.313v-26.625l23.025-13.312 23.025 13.312v26.625L70.01 406.959zM24.025 486.91L1 473.598v-26.626l23.025-13.312 23.025 13.312v26.626L24.025 486.91zm45.985 0l-23.025-13.312v-26.626L70.01 433.66l23.025 13.312v26.626L70.01 486.91zM46.915-32.66L23.89-45.973v-26.625L46.915-85.91l23.024 13.312v26.626L46.915-32.66zm0 79.951L23.89 33.98V7.354L46.915-5.96 69.939 7.354v26.625L46.915 47.292zm0 79.952L23.89 113.93V87.305l23.025-13.312 23.024 13.312v26.625l-23.024 13.313zm0 79.951L23.89 193.882v-26.625l23.025-13.313 23.024 13.313v26.625l-23.024 13.312zm0 79.952L23.89 273.833v-26.625l23.025-13.313 23.024 13.313v26.625l-23.024 13.313zm0 79.951L23.89 353.785v-26.626l23.025-13.312 23.024 13.312v26.626l-23.024 13.312zm0 79.952L23.89 433.736v-26.625l23.025-13.313 23.024 13.313v26.625l-23.024 13.313zm0 79.951L23.89 513.687v-26.625l23.025-13.312 23.024 13.312v26.625L46.915 527z" stroke="#BC9B77" stroke-width=".268" stroke-linejoin="round"/></svg>