<svg width="346" height="480" fill="none" xmlns="http://www.w3.org/2000/svg"><path d="M87.035-809.025L1-858.769v-99.487L87.035-1008l86.034 49.744v99.487l-86.034 49.744z" fill="#222"/><path d="M258.863-809.025l-86.034-49.744v-99.487L258.863-1008l86.035 49.744v99.487l-86.035 49.744zM87.035-510.279L1-560.022v-99.488l86.035-49.743 86.034 49.743v99.488l-86.034 49.743z" fill="#222"/><path d="M258.863-510.279l-86.034-49.743v-99.488l86.034-49.743 86.035 49.743v99.488l-86.035 49.743zM87.035-211.532L1-261.276v-99.487l86.035-49.744 86.034 49.744v99.487l-86.034 49.744z" fill="#222"/><path d="M258.863-211.532l-86.034-49.744v-99.487l86.034-49.744 86.035 49.744v99.487l-86.035 49.744zM87.035 87.214L1 37.471v-99.488l86.035-49.743 86.034 49.743v99.488L87.035 87.214z" fill="#222"/><path d="M258.863 87.214l-86.034-49.743v-99.488l86.034-49.743 86.035 49.743v99.488l-86.035 49.743zM87.035 385.961L1 336.217V236.73l86.035-49.744 86.034 49.744v99.487l-86.034 49.744z" fill="#222"/><path d="M258.863 385.961l-86.034-49.744V236.73l86.034-49.744 86.035 49.744v99.487l-86.035 49.744zM87.035 684.707L1 634.964v-99.488l86.035-49.743 86.034 49.743v99.488l-86.034 49.743z" fill="#222"/><path d="M258.863 684.707l-86.034-49.743v-99.488l86.034-49.743 86.035 49.743v99.488l-86.035 49.743zM87.035 983.454L1 933.71v-99.487l86.035-49.744 86.034 49.744v99.487l-86.034 49.744z" fill="#222"/><path d="M258.863 983.454l-86.034-49.744v-99.487l86.034-49.744 86.035 49.744v99.487l-86.035 49.744zM87.035 1282.2L1 1232.46v-99.49l86.035-49.74 86.034 49.74v99.49l-86.034 49.74z" fill="#222"/><path d="M258.863 1282.2l-86.034-49.74v-99.49l86.034-49.74 86.035 49.74v99.49l-86.035 49.74zM172.564-659.226L86.53-708.969v-99.488l86.034-49.743 86.035 49.743v99.488l-86.035 49.743zm0 298.747L86.53-410.223v-99.487l86.034-49.744 86.035 49.744v99.487l-86.035 49.744zm0 298.746L86.53-111.476v-99.488l86.034-49.743 86.035 49.743v99.488l-86.035 49.743zm0 298.747L86.53 187.27V87.783l86.034-49.744 86.035 49.744v99.487l-86.035 49.744zm0 298.746L86.53 486.017v-99.488l86.034-49.743 86.035 49.743v99.488l-86.035 49.743zm0 298.747L86.53 784.763v-99.487l86.034-49.744 86.035 49.744v99.487l-86.035 49.744z" fill="#222"/><path d="M172.564 1133.25l-86.034-49.74v-99.488l86.034-49.743 86.035 49.743v99.488l-86.035 49.74zm0 298.75l-86.034-49.74v-99.49l86.034-49.74 86.035 49.74v99.49L172.564 1432z" fill="#222"/><path d="M87.136-908.513L1.102-958.256 87.136-1008m0 99.487l86.035-49.743m-86.034 49.743v99.488m85.83-149.231L86.933-1008m172.032 99.487l-86.034-49.743L258.965-1008m0 99.487L345-958.256m-86.035 49.743v99.488m85.831-149.231L258.762-1008m85.896 149.231v-99.487M87.136-609.766L1.103-659.51l86.034-49.743m0 99.487l86.035-49.744m-86.034 49.744v99.487m85.83-149.231l-86.034-49.743m172.032 99.487l-86.034-49.744 86.034-49.743m0 99.487L345-659.51m-86.035 49.744v99.487m85.831-149.231l-86.034-49.743m85.896 149.231v-99.488M87.136-311.02L1.103-360.763l86.034-49.744m0 99.487l86.035-49.743M87.137-311.02v99.488m85.83-149.231l-86.034-49.744m172.032 99.487l-86.034-49.743 86.034-49.744m0 99.487L345-360.763m-86.035 49.743v99.488m85.831-149.231l-86.034-49.744m85.896 149.231v-99.487M87.136-12.273L1.103-62.017l86.034-49.743m0 99.487l86.035-49.744M87.137-12.273v99.487m85.83-149.23L86.933-111.76m172.032 99.487l-86.034-49.744 86.034-49.743m0 99.487L345-62.017m-86.035 49.744v99.487m85.831-149.23l-86.034-49.744m85.896 149.23v-99.487M87.136 286.473L1.103 236.73l86.034-49.744m0 99.487l86.035-49.743m-86.034 49.743v99.488m85.83-149.231l-86.034-49.744m172.032 99.487l-86.034-49.743 86.034-49.744m0 99.487L345 236.73m-86.035 49.743v99.488m85.831-149.231l-86.034-49.744m85.896 149.231V236.73M87.136 585.22L1.103 535.476l86.034-49.743m0 99.487l86.035-49.744M87.137 585.22v99.487m85.83-149.231l-86.034-49.743m172.032 99.487l-86.034-49.744 86.034-49.743m0 99.487L345 535.476m-86.035 49.744v99.487m85.831-149.231l-86.034-49.743m85.896 149.231v-99.488M87.136 883.966L1.103 834.223l86.034-49.744m0 99.487l86.035-49.743m-86.034 49.743v99.488m85.83-149.231l-86.034-49.744m172.032 99.487l-86.034-49.743 86.034-49.744m0 99.487L345 834.223m-86.035 49.743v99.488m85.831-149.231l-86.034-49.744m85.896 149.231v-99.487M87.136 1182.71l-86.034-49.74 86.034-49.74m0 99.48l86.035-49.74m-86.034 49.74v99.49m85.83-149.23l-86.034-49.74m172.032 99.48l-86.034-49.74 86.034-49.74m0 99.48L345 1132.97m-86.035 49.74v99.49m85.831-149.23l-86.034-49.74m85.896 149.23v-99.49M172.666-758.713l-86.034-49.744 86.034-49.743m0 99.487l86.035-49.744m-86.035 49.744v99.487m85.831-149.231L172.463-858.2m85.997 49.743l86.035-49.743m-.102 198.974l-86.034-49.743v-99.488l86.034-49.743M172.666-459.966L86.632-509.71l86.034-49.744m0 99.488l86.035-49.744m-86.035 49.744v99.487m85.831-149.231l-86.034-49.744m85.997 49.744l86.035-49.744m-.102 198.975l-86.034-49.744v-99.487l86.034-49.744M172.666-161.22l-86.034-49.744 86.034-49.743m0 99.487l86.035-49.744m-86.035 49.744v99.487m85.831-149.231l-86.034-49.743m85.997 49.743l86.035-49.743m-.102 198.974l-86.034-49.743v-99.488l86.034-49.743M172.666 137.526L86.632 87.783l86.034-49.744m0 99.487l86.035-49.743m-86.035 49.743v99.488m85.831-149.231l-86.034-49.744m85.997 49.744l86.035-49.744m-.102 198.975l-86.034-49.744V87.783l86.034-49.744M172.666 436.273l-86.034-49.744 86.034-49.743m0 99.487l86.035-49.744m-86.035 49.744v99.487m85.831-149.231l-86.034-49.743m85.997 49.743l86.035-49.743m-.102 198.974l-86.034-49.743v-99.488l86.034-49.743M172.666 735.02l-86.034-49.744 86.034-49.744m0 99.488l86.035-49.744m-86.035 49.744v99.487m85.831-149.231l-86.034-49.744m85.997 49.744l86.035-49.744m-.102 198.975l-86.034-49.744v-99.487l86.034-49.744M172.666 1033.77l-86.034-49.748 86.034-49.743m0 99.491l86.035-49.748m-86.035 49.748v99.48m85.831-149.228l-86.034-49.743m85.997 49.743l86.035-49.743m-.102 198.971l-86.034-49.74v-99.488l86.034-49.743M172.666 1332.51l-86.034-49.74 86.034-49.74m0 99.48l86.035-49.74m-86.035 49.74V1432m85.831-149.23l-86.034-49.74m85.997 49.74l86.035-49.74m-86.136 149.23v-99.49l86.034-49.74M87.035-809.025L1-858.769v-99.487L87.035-1008l86.034 49.744v99.487l-86.034 49.744zm171.828 0l-86.034-49.744v-99.487L258.863-1008l86.035 49.744v99.487l-86.035 49.744zM87.035-510.279L1-560.022v-99.488l86.035-49.743 86.034 49.743v99.488l-86.034 49.743zm171.828 0l-86.034-49.743v-99.488l86.034-49.743 86.035 49.743v99.488l-86.035 49.743zM87.035-211.532L1-261.276v-99.487l86.035-49.744 86.034 49.744v99.487l-86.034 49.744zm171.828 0l-86.034-49.744v-99.487l86.034-49.744 86.035 49.744v99.487l-86.035 49.744zM87.035 87.214L1 37.471v-99.488l86.035-49.743 86.034 49.743v99.488L87.035 87.214zm171.828 0l-86.034-49.743v-99.488l86.034-49.743 86.035 49.743v99.488l-86.035 49.743zM87.035 385.961L1 336.217V236.73l86.035-49.744 86.034 49.744v99.487l-86.034 49.744zm171.828 0l-86.034-49.744V236.73l86.034-49.744 86.035 49.744v99.487l-86.035 49.744zM87.035 684.707L1 634.964v-99.488l86.035-49.743 86.034 49.743v99.488l-86.034 49.743zm171.828 0l-86.034-49.743v-99.488l86.034-49.743 86.035 49.743v99.488l-86.035 49.743zM87.035 983.454L1 933.71v-99.487l86.035-49.744 86.034 49.744v99.487l-86.034 49.744zm171.828 0l-86.034-49.744v-99.487l86.034-49.744 86.035 49.744v99.487l-86.035 49.744zM87.035 1282.2L1 1232.46v-99.49l86.035-49.74 86.034 49.74v99.49l-86.034 49.74zm171.828 0l-86.034-49.74v-99.49l86.034-49.74 86.035 49.74v99.49l-86.035 49.74zM172.564-659.226L86.53-708.969v-99.488l86.034-49.743 86.035 49.743v99.488l-86.035 49.743zm0 298.747L86.53-410.223v-99.487l86.034-49.744 86.035 49.744v99.487l-86.035 49.744zm0 298.746L86.53-111.476v-99.488l86.034-49.743 86.035 49.743v99.488l-86.035 49.743zm0 298.747L86.53 187.27V87.783l86.034-49.744 86.035 49.744v99.487l-86.035 49.744zm0 298.746L86.53 486.017v-99.488l86.034-49.743 86.035 49.743v99.488l-86.035 49.743zm0 298.747L86.53 784.763v-99.487l86.034-49.744 86.035 49.744v99.487l-86.035 49.744zm0 298.743l-86.034-49.74v-99.488l86.034-49.743 86.035 49.743v99.488l-86.035 49.74zm0 298.75l-86.034-49.74v-99.49l86.034-49.74 86.035 49.74v99.49L172.564 1432z" stroke="#BC9B77" stroke-linejoin="round"/></svg>